<?xml version="1.0" standalone="no"?>
<!DOCTYPE svg PUBLIC "-//W3C//DTD SVG 20010904//EN"
 "http://www.w3.org/TR/2001/REC-SVG-20010904/DTD/svg10.dtd">
<svg version="1.0" xmlns="http://www.w3.org/2000/svg"
 width="1284.000000pt" height="615.000000pt" viewBox="0 0 1284.000000 615.000000"
 preserveAspectRatio="xMidYMid meet">

<g transform="translate(0.000000,615.000000) scale(0.100000,-0.100000)"
fill="#000000" stroke="none">
<path d="M5324 5186 c-181 -35 -327 -115 -448 -248 -163 -179 -236 -439 -187
-673 41 -199 172 -399 324 -495 31 -19 56 -38 57 -42 0 -4 -24 -20 -52 -34
-88 -44 -179 -109 -256 -183 -221 -214 -331 -486 -292 -721 64 -386 365 -653
1031 -915 512 -201 597 -238 693 -299 31 -20 58 -36 61 -36 3 0 30 16 60 35
79 51 262 132 540 240 467 180 684 291 855 434 213 179 321 372 337 607 21
303 -222 671 -554 838 -29 14 -53 28 -53 31 0 2 21 19 48 36 152 105 265 259
319 437 33 112 38 298 9 402 -66 239 -203 407 -421 518 -180 90 -400 103 -601
33 -122 -42 -187 -84 -295 -191 -82 -82 -102 -108 -142 -190 -58 -120 -77
-189 -84 -315 -15 -272 113 -533 337 -685 33 -22 60 -43 60 -45 0 -2 -35 -22
-77 -45 -104 -54 -200 -127 -275 -209 l-61 -68 -91 92 c-91 91 -175 153 -275
202 -52 26 -53 27 -33 42 12 9 49 36 83 61 119 87 233 260 276 420 27 100 25
300 -5 405 -61 213 -233 415 -426 500 -142 63 -325 87 -462 61z"/>
<path d="M8420 2587 l-65 -33 -60 -120 c-83 -166 -123 -223 -245 -345 -250
-251 -459 -365 -1195 -654 -295 -116 -363 -153 -451 -242 -62 -62 -78 -72
-117 -78 -70 -11 -113 9 -187 84 -81 83 -152 120 -445 236 -495 194 -656 267
-835 375 -123 74 -190 122 -282 202 -64 56 -68 58 -73 36 -3 -13 -5 -365 -3
-783 l3 -760 23 -47 c27 -55 81 -102 142 -123 64 -22 3171 -23 3246 0 64 19
116 63 146 122 22 47 23 56 26 366 3 249 6 318 16 314 7 -3 99 -55 205 -116
128 -73 208 -112 236 -117 100 -14 198 37 248 131 22 40 22 42 22 725 0 653
-1 687 -19 723 -42 85 -123 136 -216 137 -43 0 -70 -8 -120 -33z"/>
</g>
</svg>
