<svg xmlns="http://www.w3.org/2000/svg" width="1140" height="1052" viewBox="0 0 1140 1052" version="1.1"><path d="M 373.728 43.722 C 375.503 43.943, 378.653 43.946, 380.728 43.730 C 382.802 43.513, 381.350 43.333, 377.500 43.328 C 373.650 43.324, 371.952 43.501, 373.728 43.722 M 687.728 43.722 C 689.503 43.943, 692.653 43.946, 694.728 43.730 C 696.802 43.513, 695.350 43.333, 691.500 43.328 C 687.650 43.324, 685.952 43.501, 687.728 43.722 M 244 261 C 245.666 264.300, 247.254 267, 247.529 267 C 247.804 267, 246.666 264.300, 245 261 C 243.334 257.700, 241.746 255, 241.471 255 C 241.196 255, 242.334 257.700, 244 261 M 687.500 343.584 C 671.217 345.668, 665.923 346.749, 655.763 350.063 C 621.149 361.354, 590.509 382.146, 552.398 420.205 L 534.669 437.909 529.613 433.705 C 526.832 431.392, 523.419 428.501, 522.029 427.280 C 519.168 424.769, 506.795 414.923, 496.835 407.233 C 489.569 401.623, 464.535 384.720, 453.728 378.126 C 438.649 368.926, 413.097 357.416, 396.991 352.568 C 378.414 346.976, 356.943 344.976, 341.259 347.377 C 302.051 353.379, 273.427 377.600, 248.935 425.500 C 220.008 482.072, 218.693 527.639, 244.720 571.500 C 245.699 573.150, 249.424 578.324, 252.997 582.997 C 271.055 606.613, 299.195 628.009, 336.500 646.488 C 346.950 651.665, 395.857 676.052, 445.182 700.682 L 534.864 745.464 539.182 743.271 C 544.167 740.738, 551.397 736.682, 565.500 728.508 C 571 725.320, 579.585 720.355, 584.578 717.476 C 594.004 712.039, 610.534 704.108, 632 694.724 C 638.875 691.719, 657.775 683.294, 674 676.002 C 690.225 668.710, 707.100 661.204, 711.500 659.323 C 740.370 646.978, 769.044 630.351, 789 614.384 C 806.454 600.418, 832.081 572.196, 834.295 564.500 C 834.612 563.400, 836.628 558.225, 838.777 553 C 853.640 516.852, 851.473 478.152, 832.619 443 C 823.107 425.267, 807.799 405.562, 789.099 386.981 C 760.965 359.024, 732.515 345.189, 700 343.650 C 694.775 343.402, 689.150 343.373, 687.500 343.584 M 684 353.457 C 683.175 353.657, 679.125 354.367, 675 355.037 C 636.217 361.331, 592.744 390.317, 544.199 442.250 C 540.215 446.512, 536.178 449.998, 535.228 449.995 C 534.277 449.993, 532.150 448.728, 530.500 447.185 C 526.120 443.088, 506.192 426.796, 493.500 416.936 C 454.045 386.284, 413.642 365.227, 381 358.303 C 368.912 355.739, 344.325 355.786, 334 358.394 C 294.096 368.471, 264.232 404.054, 242.994 466.826 C 237.973 481.666, 236.008 492.961, 236.005 507 C 235.997 543.572, 253.008 576.101, 286.424 603.407 C 305.249 618.791, 322.574 629.443, 349.500 642.192 C 355.550 645.056, 399.832 667.072, 447.903 691.115 L 535.307 734.831 538.903 732.584 C 540.882 731.348, 544.975 728.977, 548 727.315 C 553.864 724.095, 553.894 724.077, 573 713.002 C 585.020 706.035, 600.990 697.875, 611.500 693.333 C 614.250 692.144, 625.725 687.033, 637 681.974 C 679.685 662.823, 715.679 646.753, 720.500 644.694 C 745.834 633.875, 775.353 614.615, 795.185 595.966 C 817.535 574.951, 825.936 562.730, 832.974 541 C 837.288 527.679, 838.500 519.676, 838.500 504.500 C 838.500 488.599, 837.236 480.888, 832.280 466.566 C 826.748 450.578, 821.839 441.748, 808.668 424.098 C 779.023 384.370, 749.755 362.538, 716.516 355.358 C 710.010 353.953, 687.416 352.632, 684 353.457 M 811 364.500 C 814.543 368.075, 817.667 371, 817.942 371 C 818.217 371, 815.543 368.075, 812 364.500 C 808.457 360.925, 805.333 358, 805.058 358 C 804.783 358, 807.457 360.925, 811 364.500 M 371.750 989.732 C 374.087 989.943, 377.913 989.943, 380.250 989.732 C 382.587 989.522, 380.675 989.349, 376 989.349 C 371.325 989.349, 369.413 989.522, 371.750 989.732 M 691.750 989.732 C 694.087 989.943, 697.913 989.943, 700.250 989.732 C 702.587 989.522, 700.675 989.349, 696 989.349 C 691.325 989.349, 689.413 989.522, 691.750 989.732" stroke="none" fill="#d5346a" fill-rule="evenodd"/><path d="M 485.500 84 C 488.766 87.300, 491.662 90, 491.937 90 C 492.212 90, 489.766 87.300, 486.500 84 C 483.234 80.700, 480.338 78, 480.063 78 C 479.788 78, 482.234 80.700, 485.500 84 M 842.378 190 C 842.378 196.325, 842.541 198.912, 842.739 195.750 C 842.937 192.588, 842.937 187.412, 842.739 184.250 C 842.541 181.088, 842.378 183.675, 842.378 190 M 362.750 310.737 C 365.637 310.939, 370.363 310.939, 373.250 310.737 C 376.137 310.535, 373.775 310.370, 368 310.370 C 362.225 310.370, 359.863 310.535, 362.750 310.737 M 346.321 325.327 C 341.273 325.972, 336.810 326.837, 336.404 327.250 C 335.999 327.663, 334.429 328, 332.917 328 C 331.404 328, 330.017 328.430, 329.833 328.956 C 329.650 329.482, 327.828 330.023, 325.785 330.158 C 323.742 330.293, 322.272 330.605, 322.518 330.851 C 322.764 331.097, 319.436 332.743, 315.123 334.508 C 284.838 346.905, 254.633 374.353, 229.296 412.500 C 224.913 419.100, 218.708 429.225, 215.508 435 C 212.308 440.775, 208.438 447.525, 206.907 450 C 203.464 455.566, 200.343 466.791, 199.122 478 C 198.584 482.943, 198.421 522.488, 198.732 572.500 L 199.266 658.500 196.883 656.507 L 194.500 654.514 196.750 657.072 L 199 659.629 199.004 809.564 C 199.007 957.590, 199.033 959.542, 201.002 962.771 C 205.209 969.671, 218.189 975.232, 238.093 978.661 C 247.916 980.353, 265.404 980.470, 549.774 980.744 L 851.048 981.035 856.061 978.878 C 862.399 976.152, 868.101 969.751, 870.929 962.189 C 875.579 949.755, 875.874 944.543, 875.349 884.053 C 874.801 820.919, 874.627 822.744, 881.229 822.192 C 886.314 821.767, 894.726 825.367, 908.227 833.744 C 914.427 837.592, 930.525 846.986, 944 854.620 L 968.500 868.500 979 868.500 C 988.989 868.500, 989.797 868.339, 995.600 865.191 C 1002.927 861.216, 1008.635 855.574, 1013.439 847.559 L 1017 841.618 1017 710.199 L 1017 578.780 1013.772 572.640 C 1009.759 565.004, 1000.065 555.129, 993.664 552.155 C 983.201 547.295, 970.456 548.499, 956.889 555.628 C 949.917 559.292, 944.508 560.430, 942.250 558.708 C 941.563 558.184, 940.999 558.148, 940.999 558.628 C 940.998 559.283, 878.070 559.662, 864.388 559.089 C 862.303 559.001, 862.320 558.828, 865.772 545.250 C 869.143 531.993, 869.272 530.801, 869.384 512 C 869.519 489.338, 868.117 479.710, 861.853 460.278 C 848.144 417.753, 816.315 379.205, 764.436 342.296 C 757.410 337.298, 744.089 332, 738.546 332 C 737.146 332, 736 331.550, 736 331 C 736 330.450, 734.237 330, 732.083 330 C 729.929 330, 728.001 329.502, 727.797 328.892 C 727.594 328.283, 724.744 327.672, 721.464 327.534 C 718.184 327.396, 708.525 326.965, 700 326.578 C 688.484 326.054, 681.287 326.266, 672 327.404 C 656.835 329.262, 652.661 330.028, 651.977 331.080 C 651.689 331.523, 649.335 331.994, 646.746 332.128 C 644.157 332.262, 642.265 332.598, 642.542 332.875 C 642.819 333.153, 638.423 335.020, 632.773 337.026 C 602.562 347.749, 572.431 367.373, 543.490 395.174 L 534.460 403.849 525.480 396.368 C 491.437 368.008, 453.460 344.723, 426 335.373 C 422.975 334.343, 420.350 333.163, 420.167 332.750 C 419.983 332.337, 418.890 332, 417.738 332 C 415.524 332, 408.848 329.905, 408 328.944 C 407.725 328.632, 406.600 328.352, 405.500 328.321 C 404.400 328.291, 399.450 327.487, 394.500 326.536 C 383.246 324.374, 358.613 323.755, 346.321 325.327 M 349.009 334.949 C 348.188 335.481, 345.038 336.221, 342.009 336.594 C 329.992 338.071, 310.834 345.984, 297.317 355.052 C 270.067 373.334, 246.255 400.715, 224.078 439.268 C 208.229 466.822, 208 468.015, 208 523.197 C 208 551.050, 208.351 564.788, 209.100 566.186 C 209.899 567.681, 209.899 568.056, 209.100 567.562 C 208.306 567.071, 208 580.573, 208 616.127 L 208 665.371 210.235 667.936 C 211.464 669.346, 211.824 669.938, 211.035 669.250 C 210.246 668.563, 209.240 668, 208.800 668 C 208.360 668, 208 732.700, 208 811.777 C 208 972.271, 207.318 958.081, 215.224 962.114 C 223.797 966.488, 238.272 969.315, 260.500 970.958 C 269.678 971.636, 373.178 971.986, 561 971.974 C 838.661 971.957, 847.627 971.898, 851.616 970.087 C 856.826 967.721, 860.607 962.779, 863.325 954.781 C 865.391 948.700, 865.476 946.482, 865.980 885 C 866.352 839.557, 866.829 820.931, 867.658 819.500 C 873.708 809.053, 887.309 809.777, 906.682 821.579 C 926.315 833.539, 970.423 858.278, 973.753 859.198 C 977.680 860.282, 984.786 859.523, 989.640 857.502 C 993.950 855.707, 1000.761 849.402, 1004.168 844.054 L 1007 839.608 1007 709.756 L 1007 579.904 1003.622 574.702 C 999.295 568.039, 993.503 562.516, 988.782 560.549 C 980.841 557.240, 969.124 559.162, 958.700 565.483 L 952.900 569 906.779 569 C 864.306 569, 860.494 569.138, 858.596 570.750 C 856.633 572.417, 856.599 572.417, 857.890 570.750 C 859.100 569.187, 858.973 569, 856.694 569 C 854.147 569, 851 566.725, 851 564.884 C 851 564.348, 852.879 556.618, 855.176 547.705 C 859.082 532.551, 859.380 530.419, 859.775 514.841 C 860.262 495.651, 858.713 483.110, 853.826 466.684 C 846.355 441.573, 829.214 413.796, 806.606 390.163 C 793.536 376.500, 762.270 351.236, 752.544 346.478 C 746.023 343.288, 729.288 339.029, 721.067 338.467 C 717.529 338.225, 714.341 337.552, 713.983 336.972 C 713.122 335.580, 674.955 336.213, 669.500 337.709 C 667.300 338.313, 662.312 339.286, 658.417 339.872 C 640.960 342.496, 613.098 354.519, 592 368.531 C 577.114 378.417, 564.474 388.665, 549.175 403.250 C 541.103 410.945, 536.099 414.994, 534.675 414.982 C 533.408 414.972, 527.701 410.953, 521 405.354 C 482.944 373.552, 448.709 352.911, 415.779 341.913 C 410.982 340.311, 405.470 339, 403.529 339 C 401.146 339, 400 338.539, 400 337.579 C 400 336.527, 397.986 335.995, 392.250 335.529 C 377.426 334.327, 350.524 333.966, 349.009 334.949 M 1025.482 711.500 C 1025.482 770.900, 1025.603 795.053, 1025.750 765.173 C 1025.897 735.294, 1025.897 686.694, 1025.750 657.173 C 1025.603 627.653, 1025.482 652.100, 1025.482 711.500 M 185.473 748 C 185.473 785.675, 185.597 801.087, 185.750 782.250 C 185.902 763.413, 185.902 732.587, 185.750 713.750 C 185.597 694.913, 185.473 710.325, 185.473 748 M 884.374 865.500 C 884.376 871.550, 884.541 873.896, 884.740 870.713 C 884.939 867.531, 884.937 862.581, 884.736 859.713 C 884.535 856.846, 884.372 859.450, 884.374 865.500 M 883.343 931.500 C 883.346 935.900, 883.522 937.576, 883.733 935.224 C 883.945 932.872, 883.942 929.272, 883.727 927.224 C 883.512 925.176, 883.339 927.100, 883.343 931.500 M 253.250 988.739 C 256.413 988.937, 261.587 988.937, 264.750 988.739 C 267.913 988.541, 265.325 988.378, 259 988.378 C 252.675 988.378, 250.088 988.541, 253.250 988.739 M 806.750 988.737 C 809.638 988.939, 814.362 988.939, 817.250 988.737 C 820.138 988.535, 817.775 988.370, 812 988.370 C 806.225 988.370, 803.862 988.535, 806.750 988.737 M 331.308 989.748 C 338.353 989.920, 349.603 989.919, 356.308 989.747 C 363.014 989.574, 357.250 989.433, 343.500 989.434 C 329.750 989.434, 324.264 989.576, 331.308 989.748 M 716.191 989.747 C 723.171 989.918, 734.871 989.919, 742.191 989.748 C 749.511 989.577, 743.800 989.436, 729.500 989.436 C 715.200 989.435, 709.211 989.575, 716.191 989.747" stroke="none" fill="#80b2ee" fill-rule="evenodd"/><path d="M 357 44.892 C 355.075 45.336, 350.350 46.281, 346.500 46.992 C 342.650 47.703, 335.450 49.608, 330.500 51.224 C 321.745 54.082, 305.119 61.346, 304.038 62.785 C 303.742 63.178, 301.475 64.592, 299 65.928 C 281.228 75.515, 259.704 97.762, 247.461 119.196 C 245.357 122.879, 243.198 125.622, 242.663 125.292 C 242.129 124.961, 241.995 125.183, 242.366 125.783 C 243.333 127.349, 238.028 140.135, 236.741 139.340 C 236.143 138.971, 235.986 139.168, 236.376 139.800 C 237.370 141.408, 235.982 146.107, 234.739 145.339 C 234.149 144.974, 233.986 145.168, 234.367 145.784 C 235.014 146.832, 232.182 158.966, 231.048 160 C 230.747 160.275, 230.468 161.512, 230.429 162.750 C 230.184 170.457, 229.900 172.391, 229.181 171.259 C 228.748 170.577, 228.405 180.175, 228.420 192.589 C 228.435 205.002, 228.648 214.561, 228.893 213.830 C 229.138 213.098, 230.147 216.731, 231.134 221.902 C 232.122 227.073, 232.651 231.755, 232.310 232.307 C 231.960 232.873, 232.193 232.999, 232.845 232.595 C 233.564 232.152, 234.057 232.660, 234.150 233.941 C 234.233 235.073, 234.345 236.563, 234.400 237.250 C 234.455 237.938, 234.881 238.779, 235.348 239.119 C 235.814 239.460, 236.264 240.879, 236.348 242.273 C 236.431 243.667, 236.838 244.600, 237.250 244.345 C 237.955 243.910, 238.388 245.833, 238.258 248.817 C 238.226 249.541, 238.453 249.880, 238.762 249.571 C 239.632 248.702, 243.078 257.064, 242.342 258.256 C 241.984 258.835, 242.163 259.017, 242.741 258.660 C 244.001 257.881, 245.281 260.736, 244.349 262.245 C 243.987 262.830, 244.158 263.020, 244.729 262.667 C 245.752 262.035, 248.725 267.717, 248.213 269.324 C 248.069 269.778, 248.488 269.816, 249.145 269.410 C 249.958 268.908, 250.137 269.200, 249.706 270.324 C 249.357 271.233, 249.461 271.869, 249.936 271.738 C 250.411 271.607, 252.559 274.077, 254.709 277.226 C 258.324 282.524, 264.761 290.206, 271.696 297.500 C 275.116 301.098, 283.276 308.011, 290.580 313.500 C 293.508 315.700, 295.819 317.950, 295.716 318.500 C 295.613 319.050, 290.854 322.307, 285.142 325.738 C 279.429 329.169, 273.970 332.881, 273.010 333.988 C 272.051 335.095, 270.841 336, 270.321 336 C 269.802 336, 268.490 336.787, 267.405 337.750 C 266.320 338.712, 262.523 341.969, 258.966 344.987 C 250.810 351.907, 238.147 364.586, 231 372.987 C 227.975 376.543, 224.931 380.064, 224.235 380.812 C 223.539 381.561, 221.742 383.822, 220.241 385.837 C 218.740 387.851, 217.262 389.725, 216.958 390 C 216.653 390.275, 215.322 392.075, 214 394 C 212.678 395.925, 211.326 397.725, 210.995 398 C 210.665 398.275, 208.393 401.425, 205.947 405 C 203.501 408.575, 201.162 411.650, 200.750 411.833 C 200.338 412.017, 200 412.604, 200 413.138 C 200 413.673, 198.200 416.760, 196 420 C 193.800 423.240, 192 426.365, 192 426.945 C 192 427.525, 191.627 428, 191.171 428 C 189.688 428, 186.089 437.310, 184.405 445.500 C 179.156 471.032, 177.178 492.897, 178.868 506.723 C 180.790 522.458, 186.547 536, 191.313 536 C 196.058 536, 197.221 532.291, 194.204 526.780 C 192.236 523.187, 190.515 517.950, 189.018 511 C 185.563 494.960, 190.997 448.727, 197.935 435.127 C 202.674 425.838, 219.060 402.373, 231.892 386.500 C 239.050 377.646, 261.698 354.698, 269.500 348.394 C 275.572 343.488, 286.791 336, 288.071 336 C 288.582 336, 289 335.574, 289 335.053 C 289 333.760, 298.647 329, 299.577 329.833 C 299.986 330.200, 300.053 330.028, 299.725 329.450 C 299.397 328.873, 300.047 327.827, 301.169 327.126 C 302.845 326.080, 303.073 326.088, 302.443 327.176 C 302.022 327.904, 302.894 327.391, 304.381 326.036 C 306.669 323.951, 307.384 323.758, 309.029 324.786 C 310.098 325.454, 311.654 326, 312.486 326 C 313.319 326, 314 326.360, 314 326.799 C 314 329.325, 329.027 331.412, 329.833 328.998 C 330.017 328.449, 331.479 328, 333.083 328 C 335.009 328, 336 327.490, 336 326.500 C 336 325.675, 335.330 325, 334.511 325 C 332.257 325, 319.829 319.837, 320.491 319.176 C 323.578 316.089, 355.116 309.992, 367.913 310.008 C 376.565 310.019, 400.375 313.261, 407 315.330 C 407.825 315.588, 412.663 317.052, 417.750 318.583 C 422.837 320.115, 427 321.663, 427 322.023 C 427 322.383, 422.730 323.988, 417.511 325.589 C 412.292 327.190, 408.017 328.728, 408.011 329.007 C 407.996 329.713, 415.553 332, 417.901 332 C 418.964 332, 420.016 332.548, 420.240 333.219 C 420.710 334.629, 425.980 333.195, 434.820 329.251 L 440.140 326.877 446.820 329.989 C 462.905 337.484, 489.860 354.376, 505.500 366.762 C 506.050 367.198, 508.510 369.117, 510.967 371.027 C 513.424 372.937, 517.126 376.026, 519.196 377.891 C 521.265 379.756, 523.980 381.993, 525.229 382.861 C 526.478 383.730, 528.533 385.466, 529.795 386.720 C 531.058 387.974, 532.866 389, 533.813 389 C 535.315 389, 542.604 384.739, 544 383.045 C 544.275 382.711, 547.425 380.290, 551 377.663 C 554.575 375.037, 558.188 372.328, 559.030 371.643 C 561.846 369.349, 583.404 355.390, 592 350.294 C 601.623 344.590, 619.653 335.480, 628.272 331.966 C 633.519 329.828, 634.381 329.736, 637.758 330.957 C 641.923 332.463, 651.321 332.475, 651.833 330.975 C 652.017 330.439, 653.367 329.993, 654.833 329.985 C 656.300 329.976, 658.175 329.533, 659 329 C 660.295 328.163, 660.300 328.029, 659.033 328.015 C 658.227 328.007, 655.609 327.252, 653.216 326.338 L 648.864 324.676 651.682 323.505 C 655.190 322.046, 670.085 318.603, 679.846 316.994 C 689.039 315.480, 717.175 315.493, 724.789 317.017 C 730.631 318.185, 738.112 319.848, 741.265 320.679 C 744.265 321.470, 742.252 322.802, 734.568 325.110 C 726.382 327.568, 725.158 330, 732.107 330 C 734.248 330, 736 330.450, 736 331 C 736 332.690, 742.238 332.112, 748.014 329.887 C 757.075 326.398, 758.131 326.439, 766.162 330.603 C 772.778 334.033, 788.786 344.407, 796.471 350.243 C 804.253 356.153, 825.116 378.194, 834.578 390.500 C 848.682 408.843, 873.444 451.150, 876.719 462.500 C 880.656 476.141, 882 485.253, 881.999 498.299 C 881.998 516.202, 878.819 529.494, 870.764 545.274 C 866.086 554.438, 866.139 558, 870.951 558 C 874.132 558, 875.836 556.121, 880.503 547.472 C 886.834 535.737, 892.022 514.023, 891.964 499.500 C 891.920 488.248, 888.740 468.206, 885.460 458.500 C 883.365 452.301, 872.715 431.807, 864.370 417.917 C 862.241 414.374, 859.861 410.244, 859.081 408.738 C 858.301 407.232, 857.288 406, 856.831 406 C 856.374 406, 856 405.519, 856 404.930 C 856 403.976, 854.097 401.082, 847.500 392.010 C 843.957 387.138, 837.304 378.571, 835.065 376 C 824.768 364.175, 818.385 357.480, 811.710 351.500 C 807.412 347.650, 802.860 343.533, 801.594 342.351 C 798.226 339.205, 778.476 326, 777.141 326 C 776.513 326, 776 325.550, 776 325 C 776 324.450, 775.100 324, 774 324 C 772.900 324, 772 323.550, 772 323 C 772 322.450, 771.100 322, 770 322 C 767.022 322, 767.578 320.226, 771.250 318.009 C 775.903 315.201, 777.643 313.990, 783.389 309.558 C 792.057 302.873, 810.369 283.661, 811.901 279.644 C 812.122 279.065, 813.135 277.698, 814.151 276.607 C 815.168 275.516, 816 274.070, 816 273.395 C 816 272.719, 816.400 272.017, 816.889 271.833 C 818.502 271.229, 823.699 261.632, 829.524 248.500 C 833.031 240.594, 836.493 228.105, 838.533 216 C 840.412 204.847, 840.425 178.873, 838.556 168.500 C 836.643 157.881, 833.372 145.453, 831.507 141.713 C 830.678 140.052, 830 138.268, 830 137.748 C 830 137.228, 828.136 132.910, 825.858 128.152 C 818.060 111.865, 809.537 100.206, 795.019 85.964 C 766.957 58.435, 731.573 44.034, 692 44.035 C 672.011 44.036, 654.609 47.230, 637.225 54.088 C 628.600 57.491, 612.681 65.772, 612.167 67.124 C 611.983 67.606, 611.281 68, 610.605 68 C 609.930 68, 608.488 68.788, 607.401 69.750 C 606.314 70.713, 603.867 72.603, 601.962 73.951 C 595.331 78.647, 583.739 89.755, 576.980 97.893 C 560.912 117.237, 550.271 140.658, 544.917 168.467 C 543.109 177.859, 543.383 207.918, 545.370 218 C 548.794 235.381, 551.122 242.357, 558.547 257.500 C 567.210 275.164, 574.020 284.715, 587.218 297.709 C 594.976 305.346, 605.225 314, 606.512 314 C 606.827 314, 608.050 314.900, 609.230 316 C 610.411 317.100, 611.967 318, 612.689 318 C 613.410 318, 614 318.382, 614 318.848 C 614 319.315, 615.800 320.508, 618 321.500 C 620.200 322.492, 622 323.631, 622 324.031 C 622 324.778, 616.536 327.327, 615.517 327.055 C 614.819 326.870, 605.487 331.753, 601.846 334.209 C 600.386 335.194, 598.473 336, 597.596 336 C 596.718 336, 596 336.367, 596 336.815 C 596 337.263, 594.313 338.424, 592.250 339.396 C 586.807 341.960, 553.570 363.097, 552 364.993 C 551.725 365.325, 549.925 366.678, 548 368 C 546.075 369.322, 544.275 370.650, 544 370.952 C 543.725 371.253, 541.567 373.001, 539.203 374.835 C 535.172 377.963, 534.764 378.076, 532.594 376.653 C 531.322 375.820, 529.655 374.528, 528.890 373.782 C 527.675 372.597, 520.352 366.677, 507.514 356.500 C 505.433 354.850, 503.003 353.088, 502.115 352.585 C 501.227 352.082, 500.275 351.368, 500 350.998 C 499.083 349.765, 478.081 336, 477.117 336 C 476.594 336, 476.017 335.627, 475.833 335.170 C 475.650 334.714, 472.575 332.825, 469 330.972 C 465.425 329.120, 461.306 326.793, 459.846 325.802 C 458.386 324.811, 456.586 323.986, 455.846 323.968 C 455.106 323.951, 453.738 323.357, 452.806 322.649 C 451.306 321.509, 452.225 320.622, 460.805 314.930 C 470.431 308.545, 487.697 292.504, 493.559 284.500 C 495.170 282.300, 496.717 280.275, 496.997 280 C 497.654 279.354, 501.861 272.862, 505.746 266.500 C 512.472 255.483, 518.225 240.493, 521.864 224.500 C 529.431 191.247, 525.170 157.064, 509.569 125.874 C 503.570 113.881, 500.204 108.655, 491.935 98.500 C 470.111 71.700, 441.341 54.347, 405.500 46.366 C 397.632 44.614, 362.798 43.555, 357 44.892 M 361.500 53.612 C 358.750 53.831, 354.587 54.457, 352.250 55.005 C 349.913 55.552, 345.863 56.506, 343.250 57.124 C 327.075 60.951, 310.398 68.577, 296.500 78.500 C 282.636 88.400, 270.257 101.153, 260.103 115.996 C 255.886 122.161, 246.410 142.251, 244.065 150 C 242.816 154.125, 241.391 158.281, 240.897 159.236 C 240.404 160.191, 239.989 162.441, 239.976 164.236 C 239.963 166.031, 239.519 169.300, 238.989 171.500 C 236.775 180.696, 238.180 217.313, 241.023 224.500 C 241.459 225.600, 242.390 228.750, 243.094 231.500 C 248.223 251.552, 261.197 273.209, 278.480 290.569 C 288.869 301.005, 304.632 313, 307.956 313 C 308.767 313, 313.946 311.479, 319.465 309.619 C 338.602 303.172, 348.412 301.572, 368.500 301.625 C 386.851 301.673, 396.713 303.077, 416.500 308.458 C 424.300 310.580, 434.243 314.097, 435.450 315.162 C 435.973 315.623, 437.291 316, 438.379 316 C 440.568 316, 447.214 313.859, 448 312.901 C 448.275 312.566, 451.200 310.443, 454.500 308.183 C 462.305 302.840, 479.751 287.929, 480.455 286 C 480.757 285.175, 482.488 282.925, 484.302 281 C 488.966 276.052, 502 256.205, 502 254.051 C 502 253.642, 502.626 252.001, 503.391 250.404 C 507.036 242.795, 510.235 233.811, 512.438 225 C 516.143 210.177, 517.079 184.851, 514.470 170 C 511.746 154.496, 507.290 141.230, 500.217 127.570 C 497.634 122.582, 495.276 118.275, 494.976 118 C 494.677 117.725, 492.357 114.575, 489.822 111 C 487.287 107.425, 484.040 103.150, 482.607 101.500 C 481.175 99.850, 480.002 97.938, 480.001 97.250 C 480.001 96.563, 479.438 95.987, 478.750 95.971 C 478.063 95.955, 474.951 93.527, 471.835 90.574 C 462.849 82.057, 451.735 74.322, 439.567 68.118 C 420.159 58.222, 404.133 54.219, 381.500 53.615 C 373.250 53.395, 364.250 53.393, 361.500 53.612 M 677 53.593 C 660.899 55.474, 645.331 60.060, 630.644 67.247 C 622.311 71.324, 609.751 78.911, 608 80.925 C 607.725 81.241, 605.252 83.300, 602.504 85.500 C 596.157 90.581, 588.054 98.879, 582.240 106.250 C 579.746 109.412, 577.321 112, 576.852 112 C 576.384 112, 576 112.629, 576 113.398 C 576 114.167, 574.124 117.879, 571.830 121.648 C 568.285 127.473, 564.783 134.588, 561.074 143.500 C 559.860 146.417, 556.228 159.701, 555.059 165.500 C 551.777 181.776, 551.310 194.292, 553.437 209 C 556.664 231.317, 562.127 247.369, 572.060 263.719 C 574.227 267.286, 576 270.608, 576 271.102 C 576 271.596, 576.337 272.010, 576.750 272.022 C 577.163 272.035, 579.075 274.276, 581 277.002 C 589.844 289.529, 612.447 308.470, 628.153 316.517 L 633.807 319.413 645.653 315.680 C 665.085 309.556, 685.786 306, 702 306 C 717.141 306, 737.430 309.435, 752.492 314.549 C 757.081 316.107, 759.069 315.663, 762.783 312.250 C 763.531 311.563, 764.509 311, 764.956 311 C 767.010 311, 784.347 296.902, 792 289.009 C 810.952 269.462, 821.957 248.694, 828.210 220.680 C 830.122 212.112, 830.483 207.570, 830.488 192 C 830.492 180.307, 830.016 171.476, 829.196 168 C 828.482 164.975, 827.420 160.475, 826.835 158 C 822.971 141.639, 814.138 123.226, 803.088 108.500 C 795.402 98.257, 780.177 83.929, 769.500 76.890 C 745.001 60.739, 724.247 54.232, 695 53.531 C 687.025 53.340, 678.925 53.368, 677 53.593 M 349 334.975 C 348.175 335.522, 346.413 335.976, 345.083 335.985 C 341.053 336.010, 343.788 337.427, 350.330 338.704 C 358.934 340.382, 381.925 341.279, 391.488 340.310 C 397.745 339.676, 399.545 339.138, 399.796 337.831 C 400.064 336.429, 398.868 336.061, 392.308 335.531 C 377.127 334.305, 350.527 333.964, 349 334.975 M 671 337.519 L 667.500 338.800 670.500 339.626 C 674.699 340.781, 711.853 340.418, 715.500 339.186 C 718.043 338.326, 718.157 338.159, 716.250 338.086 C 715.013 338.039, 714 337.550, 714 337 C 714 335.459, 675.356 335.925, 671 337.519" stroke="none" fill="#f2c40d" fill-rule="evenodd"/><path d="M 368 40.667 C 343.540 42.170, 312.531 53.442, 291.500 68.476 C 276.828 78.964, 255.610 101.409, 250.931 111.391 C 250.187 112.978, 250.382 112.890, 251.721 111.035 C 260.137 99.374, 263.642 95.223, 272.436 86.500 C 297.696 61.445, 329.151 47.006, 365.118 43.953 C 391.752 41.692, 416.410 46.357, 441.602 58.422 C 484.584 79.008, 514.261 117.946, 523.593 166 C 526.339 180.141, 526.101 206.836, 523.103 221 C 518.776 241.437, 511.676 258.450, 500.150 276 C 492.788 287.210, 472.344 307.684, 460.691 315.518 C 452.817 320.813, 452.068 321.576, 453.632 322.720 C 454.595 323.424, 455.789 324, 456.285 324 C 457.613 324, 473.476 312.394, 481.054 305.878 C 488.373 299.586, 500.443 285.135, 507.261 274.500 C 517.387 258.709, 526.325 237.244, 529.123 222 C 531.168 210.863, 530.878 174.257, 528.650 162.235 C 520.822 119.992, 487.588 76.436, 447.956 56.478 C 427.157 46.004, 392.543 39.159, 368 40.667 M 663.659 43.070 C 644.586 46.428, 622.537 54.901, 608.671 64.203 C 595.335 73.150, 575.258 92.381, 564.586 106.432 C 557.852 115.296, 546.624 139.904, 543.001 153.738 C 539.069 168.749, 537.435 189.899, 538.962 206 C 543.321 251.939, 565.948 290.662, 604.500 318.162 C 614.969 325.630, 616.787 326.591, 618.750 325.700 C 619.987 325.139, 620.984 324.414, 620.965 324.089 C 620.945 323.765, 617.325 321.332, 612.920 318.681 C 578.943 298.239, 553.628 261.428, 545.314 220.374 C 542.566 206.807, 542.827 176.065, 545.806 162.312 C 554.898 120.339, 580.166 85.319, 617.110 63.488 C 631.634 54.906, 647.213 49.263, 667.157 45.361 C 678.723 43.099, 703.334 43.139, 716.500 45.442 C 765.709 54.049, 808.303 87.070, 827.894 131.799 C 837.279 153.228, 840.349 168.190, 840.349 192.500 C 840.349 211.901, 838.864 221.859, 833.480 238.565 C 830.203 248.734, 821.610 266.261, 814.883 276.500 C 808.130 286.776, 787.133 307.777, 776.225 315.163 C 770.143 319.282, 768.383 320.933, 769.584 321.394 C 771.531 322.141, 781.291 315.418, 790.919 306.697 C 814.911 284.964, 832.684 254.829, 839.141 224.934 C 841.099 215.870, 841.401 211.480, 841.447 191.500 C 841.506 165.773, 840.699 160.319, 834.271 143 C 822.323 110.810, 805.467 88.251, 779.161 69.241 C 769.023 61.916, 747.903 51.138, 736.500 47.472 C 716.095 40.911, 686.189 39.104, 663.659 43.070 M 363.009 54.026 C 321.170 58.363, 283.148 81.512, 260.460 116.463 C 245.739 139.141, 237.992 165.148, 238.006 191.849 C 238.029 236.723, 258.433 277.569, 294.001 303.940 C 307.509 313.956, 306.048 313.664, 319.727 309.092 C 338.581 302.790, 346.688 301.532, 368.500 301.524 C 391.331 301.515, 402.347 303.372, 425.545 311.140 L 440.590 316.178 446.804 312.536 C 480.679 292.682, 505.170 258.421, 513.019 219.908 C 519.150 189.822, 515.429 160.280, 502.009 132.500 C 482.686 92.500, 446.453 64.317, 403.800 56.110 C 391.280 53.701, 374.447 52.841, 363.009 54.026 M 678.009 54.034 C 617.249 60.280, 568.660 104.346, 555.315 165.305 C 552.616 177.635, 552.803 208.037, 555.658 221 C 564.476 261.040, 589.969 295.161, 625.562 314.562 L 634.003 319.164 643.252 316.103 C 666.824 308.303, 685.945 305.449, 708.866 306.312 C 724.782 306.911, 735.781 308.782, 748.796 313.103 C 752.259 314.253, 756.138 314.931, 757.416 314.610 C 762.003 313.459, 777.720 302.169, 786.916 293.418 C 806.998 274.310, 819.924 252.435, 826.566 226.316 C 846.048 149.706, 796.141 70.889, 718.800 56.125 C 706.232 53.726, 689.395 52.863, 678.009 54.034 M 227.360 193 C 227.360 198.225, 227.529 200.363, 227.735 197.750 C 227.941 195.137, 227.941 190.863, 227.735 188.250 C 227.529 185.637, 227.360 187.775, 227.360 193 M 257.704 283 C 260.518 287.483, 271.613 300.359, 276.545 304.867 C 283.751 311.453, 294.672 319.276, 296.029 318.824 C 296.600 318.633, 293.652 316.035, 289.477 313.050 C 281.577 307.399, 268.414 295.110, 261.043 286.500 C 258.688 283.750, 257.186 282.175, 257.704 283 M 346.500 312.510 C 338.225 313.840, 321 318.535, 321 319.460 C 321 319.677, 324.712 321.291, 329.250 323.046 L 337.500 326.237 350.760 324.966 C 365.966 323.508, 382.428 324.118, 395 326.604 C 399.675 327.529, 404.625 328.224, 406 328.150 C 409.383 327.968, 426 322.858, 426 322 C 426 321.039, 410.326 316.339, 398.997 313.903 C 386.321 311.177, 359.256 310.459, 346.500 312.510 M 681.500 317.146 C 673.933 318.112, 653.420 322.748, 651.036 324.031 C 650.029 324.573, 651.436 325.367, 655.536 326.569 C 660.850 328.128, 662.807 328.191, 673.500 327.151 C 688.443 325.697, 699.997 325.682, 713.022 327.099 C 722.750 328.157, 723.443 328.098, 731.811 325.510 C 736.590 324.032, 740.881 322.458, 741.348 322.013 C 742.279 321.125, 732.057 318.578, 721.342 317.029 C 713.128 315.841, 691.219 315.906, 681.500 317.146 M 300.837 328.777 C 297.723 330.825, 291.576 334.456, 287.178 336.847 C 266.763 347.945, 239.611 374.913, 217.185 406.365 C 203.114 426.098, 196.841 436.822, 194.871 444.512 C 186.705 476.391, 186.350 512.552, 194.073 525.807 C 196.133 529.342, 196.604 533.508, 195.054 534.467 C 194.482 534.820, 194.667 536.639, 195.518 539.052 C 198.812 548.387, 199.012 546.947, 198.369 518.500 C 197.556 482.552, 199.351 464.749, 204.872 454 C 225.295 414.234, 251.157 379.384, 274.997 359.503 C 288.202 348.492, 305.635 337.944, 319.932 332.316 C 322.206 331.421, 321.924 331.153, 315.569 328.179 C 311.833 326.431, 308.263 325.012, 307.638 325.027 C 307.012 325.042, 303.952 326.730, 300.837 328.777 M 749.255 329.854 L 743.010 332.651 750.444 334.982 C 756.709 336.947, 760.315 339.138, 773.368 348.907 C 793.510 363.982, 808.710 377.676, 821.523 392.289 C 840.734 414.200, 854.456 437.333, 861.853 460.278 C 868.096 479.645, 869.514 489.341, 869.415 512 C 869.333 530.962, 869.233 531.880, 865.777 545.250 C 862.540 557.774, 862.382 559, 864.005 559 C 865.891 559, 867.397 556.452, 866.434 554.892 C 866.118 554.383, 868.360 548.911, 871.414 542.733 C 882.889 519.525, 884.818 496.909, 877.787 468 C 873.896 452.001, 852.485 414.646, 831.934 388 C 816.892 368.498, 793.565 346.950, 776.500 336.794 C 768.399 331.973, 758.345 326.994, 756.779 327.028 C 756.075 327.043, 752.690 328.315, 749.255 329.854 M 431.744 330.901 C 424.910 333.710, 422.728 335, 424.806 335 C 427.158 335, 449.910 345.333, 460.500 351.211 C 481.483 362.857, 504.232 378.667, 525.499 396.383 L 534.498 403.880 543.499 395.116 C 573.109 366.285, 608.515 344.061, 640.410 334.285 L 643.319 333.394 638.595 331.589 L 633.870 329.785 627.685 332.536 C 600.373 344.683, 579.067 357.448, 549.897 379.140 C 541.865 385.113, 534.826 390, 534.254 390 C 533.683 390, 527.879 385.593, 521.358 380.206 C 494.462 357.991, 473.158 343.580, 450.272 332.120 C 445.747 329.854, 441.247 328.028, 440.272 328.062 C 439.297 328.095, 435.460 329.373, 431.744 330.901 M 329.283 339.538 C 302.719 348.417, 280.195 364.653, 256.875 391.732 C 244.523 406.075, 225.207 435.685, 215.120 455.740 C 208.923 468.061, 208.713 470.020, 208.301 519.349 L 207.926 564.198 210.546 568.669 C 215.075 576.396, 228.591 592.427, 238.221 601.492 C 261.730 623.623, 290.422 642.265, 331.306 661.972 C 354.408 673.107, 370.829 680.027, 420.500 699.559 C 485.223 725.009, 503.572 733.180, 524.224 745.752 L 534.948 752.281 545.724 745.748 C 565.999 733.458, 591.758 721.961, 651.500 698.539 C 704.839 677.627, 725.358 668.816, 753.497 654.743 C 790.790 636.092, 817.697 617.092, 838.919 594.424 C 846.873 585.929, 859.439 569.605, 858.232 569.337 C 857.829 569.248, 856.292 568.910, 854.817 568.585 C 853.341 568.261, 851.862 567.141, 851.531 566.096 C 851.199 565.052, 852.815 556.840, 855.122 547.849 C 859.055 532.518, 859.344 530.442, 859.762 514.500 C 860.272 495.023, 858.358 480.795, 852.971 464.010 C 840.276 424.456, 808.351 385.360, 761.901 352.483 C 752.351 345.724, 745.129 342.849, 729.554 339.608 C 723.532 338.354, 721.538 338.351, 714.554 339.580 C 704.900 341.279, 681.032 341.439, 670.516 339.875 C 661.502 338.534, 655.734 339.446, 640 344.699 C 609.849 354.767, 580.042 373.982, 549.178 403.250 C 541.063 410.944, 536.026 415, 534.583 415 C 533.372 415, 529.932 412.903, 526.940 410.340 C 486.457 375.663, 450.236 353.398, 415.500 341.836 C 406.574 338.865, 406.421 338.851, 396.896 340.063 C 384.776 341.605, 355.948 340.751, 347.500 338.599 C 339.607 336.589, 337.829 336.681, 329.283 339.538 M 687.500 343.584 C 671.217 345.668, 665.923 346.749, 655.763 350.063 C 621.149 361.354, 590.509 382.146, 552.398 420.205 L 534.669 437.909 529.613 433.705 C 526.832 431.392, 523.419 428.501, 522.029 427.280 C 519.168 424.769, 506.795 414.923, 496.835 407.233 C 489.569 401.623, 464.535 384.720, 453.728 378.126 C 438.649 368.926, 413.097 357.416, 396.991 352.568 C 378.414 346.976, 356.943 344.976, 341.259 347.377 C 302.051 353.379, 273.427 377.600, 248.935 425.500 C 220.008 482.072, 218.693 527.639, 244.720 571.500 C 245.699 573.150, 249.424 578.324, 252.997 582.997 C 271.055 606.613, 299.195 628.009, 336.500 646.488 C 346.950 651.665, 395.857 676.052, 445.182 700.682 L 534.864 745.464 539.182 743.271 C 544.167 740.738, 551.397 736.682, 565.500 728.508 C 571 725.320, 579.585 720.355, 584.578 717.476 C 594.004 712.039, 610.534 704.108, 632 694.724 C 638.875 691.719, 657.775 683.294, 674 676.002 C 690.225 668.710, 707.100 661.204, 711.500 659.323 C 740.370 646.978, 769.044 630.351, 789 614.384 C 806.454 600.418, 832.081 572.196, 834.295 564.500 C 834.612 563.400, 836.628 558.225, 838.777 553 C 853.640 516.852, 851.473 478.152, 832.619 443 C 823.107 425.267, 807.799 405.562, 789.099 386.981 C 760.965 359.024, 732.515 345.189, 700 343.650 C 694.775 343.402, 689.150 343.373, 687.500 343.584 M 684 353.457 C 683.175 353.657, 679.125 354.367, 675 355.037 C 636.217 361.331, 592.744 390.317, 544.199 442.250 C 540.215 446.512, 536.178 449.998, 535.228 449.995 C 534.277 449.993, 532.150 448.728, 530.500 447.185 C 526.120 443.088, 506.192 426.796, 493.500 416.936 C 454.045 386.284, 413.642 365.227, 381 358.303 C 368.912 355.739, 344.325 355.786, 334 358.394 C 294.096 368.471, 264.232 404.054, 242.994 466.826 C 237.973 481.666, 236.008 492.961, 236.005 507 C 235.997 543.572, 253.008 576.101, 286.424 603.407 C 305.249 618.791, 322.574 629.443, 349.500 642.192 C 355.550 645.056, 399.832 667.072, 447.903 691.115 L 535.307 734.831 538.903 732.584 C 540.882 731.348, 544.975 728.977, 548 727.315 C 553.864 724.095, 553.894 724.077, 573 713.002 C 585.020 706.035, 600.990 697.875, 611.500 693.333 C 614.250 692.144, 625.725 687.033, 637 681.974 C 679.685 662.823, 715.679 646.753, 720.500 644.694 C 745.834 633.875, 775.353 614.615, 795.185 595.966 C 817.535 574.951, 825.936 562.730, 832.974 541 C 837.288 527.679, 838.500 519.676, 838.500 504.500 C 838.500 488.599, 837.236 480.888, 832.280 466.566 C 826.748 450.578, 821.839 441.748, 808.668 424.098 C 779.023 384.370, 749.755 362.538, 716.516 355.358 C 710.010 353.953, 687.416 352.632, 684 353.457 M 968.678 543.431 C 961.023 545.489, 944.318 554.190, 943.107 556.750 C 942.097 558.886, 942.246 559, 946.046 559 C 948.613 559, 952.485 557.773, 956.835 555.583 C 971.253 548.322, 983.079 547.187, 993.500 552.063 C 1000.059 555.132, 1009.728 564.945, 1013.772 572.640 L 1017 578.780 1017 710.199 L 1017 841.618 1013.439 847.559 C 1008.635 855.574, 1002.927 861.216, 995.600 865.191 C 989.797 868.339, 988.989 868.500, 979 868.500 L 968.500 868.500 944 854.631 C 930.525 847.003, 915.502 838.268, 910.615 835.220 C 895.301 825.668, 888.524 822.585, 882.743 822.540 C 874.378 822.475, 874.785 819.092, 875.349 884.053 C 875.876 944.730, 875.591 949.692, 870.846 962.443 C 867.902 970.351, 860.413 978.087, 854 979.843 C 850.470 980.809, 784.722 981.008, 549 980.766 C 265.320 980.474, 247.917 980.356, 238.093 978.662 C 218.184 975.230, 205.208 969.670, 201.002 962.771 C 199.033 959.542, 199.007 957.589, 199.004 809.328 L 199 659.156 194.250 655.084 C 191.637 652.845, 188.958 651.010, 188.295 651.006 C 187.633 651.003, 186.822 652.462, 186.495 654.250 C 186.167 656.038, 186.034 724.325, 186.199 806 L 186.500 954.500 190.367 961.500 C 196.576 972.737, 204.054 979.985, 214.513 984.901 C 219.025 987.022, 221.246 987.195, 257.386 988.244 C 308.975 989.741, 766.680 989.728, 814.929 988.228 L 850.358 987.127 857.429 983.624 C 870.535 977.130, 880.233 964.481, 882.074 951.481 C 882.575 947.942, 883.427 920.399, 883.966 890.273 C 884.505 860.148, 885.236 834.487, 885.590 833.250 C 885.944 832.013, 886.719 831, 887.312 831 C 887.905 831, 901.015 838.169, 916.445 846.932 C 931.875 855.694, 950.319 865.706, 957.431 869.182 C 969.553 875.105, 970.866 875.521, 978.437 875.843 C 995.340 876.560, 1011.142 867.378, 1020.507 851.398 C 1022.321 848.302, 1023.370 844.543, 1024.037 838.747 C 1025.174 828.857, 1025.230 592.221, 1024.099 580.399 C 1023.612 575.321, 1022.447 570.470, 1020.975 567.399 C 1018.069 561.334, 1007.033 550.230, 1000.990 547.292 C 990.662 542.271, 978.431 540.809, 968.678 543.431 M 968.207 560.977 C 965.296 562.024, 960.677 564.258, 957.942 565.941 C 953.499 568.674, 952.094 569.009, 944.735 569.082 L 936.500 569.165 930.500 581.314 C 923.253 595.987, 914.237 611.215, 907.591 620.006 C 900.246 629.721, 863.991 665.346, 852 674.630 C 813.060 704.778, 772.783 724.731, 662.500 768.504 C 591.860 796.542, 583.545 800.931, 561.969 821.579 C 550.145 832.893, 545.737 835.188, 535.605 835.302 C 524.181 835.431, 518.920 832.412, 500.807 815.330 C 485.255 800.665, 474.408 795.328, 398.758 765.120 C 314.458 731.457, 293.872 722.155, 260.500 702.646 C 243.659 692.800, 233.259 686.008, 220.242 676.351 C 214.050 671.758, 208.763 668, 208.492 668 C 208.221 668, 208 732.700, 208 811.777 C 208 973.150, 207.217 958.066, 215.820 962.389 C 221.625 965.306, 230.112 967.425, 245 969.674 C 255.683 971.288, 277.412 971.434, 550.797 971.731 C 767.275 971.967, 846.206 971.753, 849.297 970.922 C 855.311 969.305, 860.391 963.574, 863.187 955.250 C 865.424 948.590, 865.461 947.649, 865.977 885 C 866.351 839.562, 866.829 820.931, 867.658 819.500 C 873.639 809.172, 887.582 809.820, 906.355 821.299 C 917.471 828.095, 934.134 837.784, 954.942 849.550 C 972.241 859.332, 972.438 859.412, 978.942 859.340 C 982.549 859.300, 987.138 858.575, 989.140 857.730 C 993.919 855.713, 1000.633 849.603, 1004.168 844.054 L 1007 839.608 1007 709.756 L 1007 579.904 1003.622 574.702 C 999.295 568.039, 993.503 562.516, 988.782 560.549 C 983.777 558.464, 974.664 558.653, 968.207 560.977" stroke="none" fill="#050505" fill-rule="evenodd"/></svg>