<?xml version="1.0" standalone="no"?>
<!DOCTYPE svg PUBLIC "-//W3C//DTD SVG 20010904//EN"
 "http://www.w3.org/TR/2001/REC-SVG-20010904/DTD/svg10.dtd">
<svg version="1.0" xmlns="http://www.w3.org/2000/svg"
 width="1284.000000pt" height="141.000000pt" viewBox="0 0 1284.000000 141.000000"
 preserveAspectRatio="xMidYMid meet">

<g transform="translate(0.000000,141.000000) scale(0.100000,-0.100000)"
fill="#000000" stroke="none">
<path d="M1938 949 c-47 -11 -109 -49 -136 -84 -46 -58 -54 -102 -50 -266 4
-168 9 -186 67 -245 61 -62 89 -69 266 -69 177 0 206 7 267 69 52 51 68 99 68
204 l0 92 -165 0 -166 0 3 -67 3 -68 98 -3 c53 -1 97 -5 97 -8 0 -14 -24 -51
-44 -66 -18 -15 -43 -18 -158 -18 l-138 0 -32 29 -33 29 -4 122 c-3 132 5 167
47 200 22 18 41 20 153 20 76 0 138 -5 153 -12 14 -6 34 -28 43 -49 l18 -38
63 -1 c61 0 62 0 62 28 -1 67 -69 155 -145 188 -46 20 -274 28 -337 13z"/>
<path d="M4545 949 c-62 -8 -100 -27 -142 -71 -55 -57 -63 -90 -63 -260 0
-170 10 -206 68 -264 56 -57 94 -68 237 -72 179 -6 224 6 290 72 61 61 75 102
75 215 l0 81 -167 -2 -168 -3 0 -65 0 -65 98 -3 c87 -2 97 -5 97 -21 0 -11
-14 -31 -31 -45 -30 -25 -35 -26 -167 -26 -194 1 -202 9 -202 205 l0 127 34
34 34 34 135 0 c130 0 137 -1 165 -25 16 -14 33 -36 36 -50 6 -23 10 -25 71
-25 61 0 65 1 65 23 0 65 -75 163 -146 193 -36 15 -243 24 -319 13z"/>
<path d="M6828 951 c-72 -10 -122 -41 -154 -97 -23 -39 -26 -53 -22 -114 3
-58 8 -75 34 -107 17 -21 50 -48 74 -60 41 -21 58 -23 212 -23 155 0 170 -2
188 -20 25 -25 26 -72 2 -93 -16 -14 -44 -17 -180 -17 -149 0 -164 2 -182 20
-11 11 -20 25 -20 30 0 6 -28 10 -65 10 -63 0 -65 -1 -65 -25 0 -66 68 -143
145 -164 50 -14 328 -14 374 -1 56 16 100 52 126 104 53 105 16 213 -90 269
-35 18 -63 22 -218 27 -162 4 -180 7 -193 24 -20 28 -17 59 6 84 20 21 29 22
184 22 173 0 181 -2 199 -52 8 -24 124 -26 133 -3 8 21 -14 81 -43 116 -47 56
-84 67 -243 72 -80 3 -170 2 -202 -2z"/>
<path d="M9972 952 l-52 -3 2 -332 3 -332 225 -3 c262 -3 290 2 360 65 71 64
83 106 78 291 -3 129 -6 152 -26 190 -25 48 -88 97 -141 112 -35 10 -344 18
-449 12z m427 -147 c50 -25 64 -72 60 -206 -4 -115 -5 -118 -34 -149 l-29 -30
-171 2 -170 3 -3 184 c-2 102 -1 190 2 198 8 20 306 19 345 -2z"/>
<path d="M11665 950 l-150 -5 0 -330 0 -330 65 0 65 0 5 100 5 100 142 2 c102
1 145 -2 152 -11 6 -7 28 -53 50 -102 l40 -89 70 -3 c44 -2 71 1 71 7 0 6 -20
56 -45 112 -25 56 -45 107 -45 114 0 7 14 28 31 46 42 45 59 91 59 163 -1 99
-49 176 -135 212 -37 15 -183 21 -380 14z m354 -161 c53 -52 36 -135 -31 -158
-17 -6 -100 -11 -184 -11 l-154 0 0 100 0 100 169 0 169 0 31 -31z"/>
<path d="M698 728 c-2 -123 -2 -274 0 -335 l3 -113 65 0 64 0 0 135 0 135 200
0 199 0 3 -132 3 -133 65 0 65 0 3 333 2 333 -67 -3 -68 -3 -3 -127 -3 -128
-199 0 -200 0 0 130 0 130 -64 0 -65 0 -3 -222z"/>
<path d="M1492 618 l3 -333 62 -3 62 -3 3 113 c2 62 2 213 0 336 l-3 222 -64
0 -65 0 2 -332z"/>
<path d="M2540 615 l0 -335 65 0 65 0 0 135 0 135 203 -2 202 -3 2 -130 2
-130 63 0 63 0 3 333 2 332 -65 0 -64 0 -3 -127 -3 -128 -202 -3 -203 -2 0
130 0 130 -65 0 -65 0 0 -335z"/>
<path d="M3342 618 l3 -333 333 -3 332 -2 0 70 0 70 -265 0 -265 0 -2 263 -3
262 -68 3 -67 3 2 -333z"/>
<path d="M4090 615 l0 -335 65 0 65 0 0 335 0 335 -65 0 -65 0 0 -335z"/>
<path d="M5135 937 c-3 -7 -4 -156 -3 -332 l3 -320 65 0 65 0 3 133 3 132 199
0 199 0 3 -132 3 -133 65 0 65 0 0 330 0 330 -67 3 -68 3 0 -131 0 -130 -200
0 -200 0 0 130 0 130 -65 0 c-44 0 -67 -4 -70 -13z"/>
<path d="M5900 885 l0 -65 135 0 135 0 0 -270 0 -270 65 0 65 0 0 270 0 270
135 0 135 0 0 65 0 65 -335 0 -335 0 0 -65z"/>
<path d="M8110 615 l0 -335 65 0 65 0 0 135 0 135 140 0 140 0 0 70 0 70 -140
0 -140 0 0 65 0 65 270 0 270 0 0 65 0 65 -335 0 -335 0 0 -335z"/>
<path d="M8850 615 l0 -335 65 0 65 0 0 335 0 335 -65 0 -65 0 0 -335z"/>
<path d="M9118 728 c-2 -123 -2 -274 0 -335 l3 -113 65 0 64 0 0 255 c0 140 3
255 8 255 4 0 93 -49 197 -109 l190 -109 5 -144 5 -143 65 0 65 0 3 333 2 333
-67 -3 -68 -3 -3 -107 c-1 -60 -5 -108 -9 -108 -3 0 -92 50 -197 110 -191 110
-191 110 -258 110 l-67 0 -3 -222z"/>
<path d="M10710 615 l0 -335 333 2 332 3 0 65 0 65 -267 3 -268 2 0 65 0 65
140 0 140 0 0 70 0 70 -140 0 -140 0 0 65 0 65 270 0 270 0 0 65 0 65 -335 0
-335 0 0 -335z"/>
</g>
</svg>
