<?xml version="1.0" standalone="no"?>
<!DOCTYPE svg PUBLIC "-//W3C//DTD SVG 20010904//EN"
 "http://www.w3.org/TR/2001/REC-SVG-20010904/DTD/svg10.dtd">
<svg version="1.0" xmlns="http://www.w3.org/2000/svg"
 width="1284.000000pt" height="163.000000pt" viewBox="0 0 1284.000000 163.000000"
 preserveAspectRatio="xMidYMid meet">

<g transform="translate(0.000000,163.000000) scale(0.100000,-0.100000)"
fill="#000000" stroke="none">
<path d="M7125 1094 c-62 -32 -103 -96 -120 -186 -7 -37 -8 -38 -51 -38 -32 0
-44 -4 -44 -15 0 -19 31 -35 70 -35 30 0 33 -4 90 -124 57 -120 84 -154 97
-119 4 11 -13 53 -45 114 -29 54 -52 101 -52 107 0 5 35 12 77 16 47 4 83 12
92 21 20 19 7 23 -92 27 -50 2 -81 8 -86 16 -11 18 5 99 25 130 9 13 36 33 61
44 43 19 48 19 79 4 42 -20 53 -4 20 29 -29 29 -76 33 -121 9z"/>
<path d="M2595 1026 c-11 -16 -16 -40 -13 -68 l3 -43 -54 -5 c-30 -3 -56 -10
-58 -17 -4 -11 17 -19 99 -37 30 -7 42 -36 53 -126 7 -59 27 -100 50 -100 25
0 26 18 0 97 -13 43 -25 85 -25 94 0 17 37 29 94 29 40 0 61 14 53 34 -5 13
-17 15 -64 10 -72 -8 -88 7 -104 92 -6 32 -12 61 -14 62 -2 2 -11 -8 -20 -22z"/>
<path d="M3909 1034 c-8 -9 -13 -38 -12 -70 l1 -54 -53 0 c-90 0 -79 -24 22
-50 23 -6 45 -15 48 -20 3 -5 12 -48 20 -95 14 -87 26 -115 51 -115 26 0 25
22 -2 111 -15 49 -25 91 -22 94 3 3 35 9 71 13 73 9 82 14 74 36 -4 11 -19 13
-65 9 -57 -5 -61 -4 -77 21 -10 15 -20 49 -23 77 -5 55 -14 66 -33 43z"/>
<path d="M11360 1031 c-5 -11 -10 -42 -10 -70 l0 -51 -55 0 c-41 0 -55 -4 -55
-14 0 -15 4 -17 76 -35 23 -6 47 -18 54 -26 6 -8 16 -47 21 -86 9 -76 29 -119
54 -119 21 0 19 49 -5 110 -37 93 -26 110 66 110 43 0 66 14 57 36 -4 10 -19
12 -62 7 -54 -5 -59 -4 -79 21 -12 16 -24 50 -27 82 -8 57 -17 67 -35 35z"/>
<path d="M641 1010 c-12 -7 -13 -31 -3 -155 12 -152 31 -220 62 -220 17 0 19
38 6 123 l-8 53 94 -3 c91 -3 93 -4 96 -28 10 -104 39 -167 64 -142 8 8 7 48
-4 154 -9 79 -13 160 -11 180 4 30 1 39 -12 45 -28 10 -48 -24 -41 -74 9 -71
6 -73 -104 -73 l-97 0 -6 66 c-5 71 -14 88 -36 74z"/>
<path d="M994 1009 c-9 -15 11 -33 30 -26 9 4 13 13 10 22 -7 17 -30 20 -40 4z"/>
<path d="M1441 1006 c-9 -11 -15 -65 -19 -171 -4 -133 -3 -158 12 -180 9 -14
25 -25 36 -25 17 0 20 7 20 54 0 47 4 57 26 75 31 25 44 26 69 7 13 -10 20
-30 23 -75 2 -33 8 -61 13 -61 26 0 39 92 18 133 -29 57 -103 75 -152 37 l-25
-20 5 104 c6 110 -3 150 -26 122z"/>
<path d="M1805 1011 c-8 -15 3 -31 21 -31 9 0 14 7 12 17 -4 20 -24 28 -33 14z"/>
<path d="M2245 1010 c-3 -5 -11 -71 -17 -147 -10 -115 -9 -145 3 -183 11 -37
18 -45 38 -45 22 0 24 4 26 51 1 28 5 56 9 63 11 17 55 33 76 26 22 -7 40 -55
40 -106 0 -45 16 -51 31 -12 15 39 1 104 -29 136 -43 46 -127 31 -153 -27 -7
-16 -8 -12 -4 19 14 100 17 165 11 199 -7 35 -19 46 -31 26z"/>
<path d="M2827 1006 c-7 -18 1 -26 25 -26 13 0 18 6 16 17 -4 22 -34 29 -41 9z"/>
<path d="M4157 1005 c-13 -32 -29 -233 -23 -283 8 -70 21 -94 49 -90 18 2 21
9 19 31 -5 46 17 97 45 108 53 20 83 -15 83 -96 0 -51 15 -59 31 -17 12 31 4
99 -14 123 -42 55 -143 49 -167 -10 -9 -24 -10 -24 -5 8 12 82 17 171 11 205
-7 37 -20 47 -29 21z"/>
<path d="M6035 1011 c-8 -15 3 -31 21 -31 9 0 14 7 12 17 -4 20 -24 28 -33 14z"/>
<path d="M7526 1005 c-12 -13 -16 -28 -12 -59 3 -22 8 -77 11 -121 8 -104 23
-160 47 -181 16 -16 21 -16 29 -4 5 8 7 21 4 28 -2 7 -7 41 -11 77 l-7 65 91
0 c99 0 102 -2 102 -66 0 -45 28 -114 47 -114 13 0 15 14 9 93 -3 50 -9 138
-12 195 -7 102 -14 118 -42 90 -7 -7 -12 -39 -12 -75 l0 -63 -99 0 c-111 0
-111 0 -111 78 0 62 -11 79 -34 57z"/>
<path d="M11594 1009 c-9 -15 11 -33 30 -26 9 4 13 13 10 22 -7 17 -30 20 -40
4z"/>
<path d="M1690 996 c-10 -14 -11 -30 -2 -84 6 -37 16 -109 22 -161 11 -93 22
-131 40 -131 18 0 20 20 10 117 -14 144 -31 241 -44 259 -11 14 -13 14 -26 0z"/>
<path d="M5186 988 c-8 -13 -18 -36 -21 -53 -25 -115 -38 -118 -104 -27 -25
35 -59 71 -74 80 -27 16 -29 16 -43 -2 -10 -14 -14 -47 -14 -107 0 -85 17
-239 27 -249 2 -3 10 3 17 12 11 14 10 36 -2 113 -14 90 -11 165 7 165 5 0 21
-19 36 -42 45 -69 76 -98 107 -98 33 0 50 23 72 102 19 67 33 79 56 50 16 -19
26 -52 60 -189 8 -32 16 -43 30 -43 25 0 25 18 4 113 -27 118 -75 197 -121
197 -12 0 -29 -10 -37 -22z"/>
<path d="M9574 981 c-18 -11 -42 -41 -58 -72 -70 -141 9 -279 160 -279 59 0
118 28 122 59 4 26 -5 26 -88 -1 -67 -21 -67 -21 -106 -2 -51 25 -77 74 -70
133 8 58 42 116 82 137 33 18 34 18 59 -6 25 -23 25 -23 25 -2 0 25 -35 52
-70 52 -14 0 -39 -9 -56 -19z"/>
<path d="M8066 952 c-2 -4 -4 -43 -4 -87 1 -92 -20 -156 -56 -173 -53 -24
-104 65 -92 162 7 59 -4 77 -31 55 -13 -11 -14 -27 -9 -86 10 -123 51 -193
114 -193 70 0 122 98 122 231 0 48 -5 72 -16 83 -18 18 -21 19 -28 8z"/>
<path d="M4440 902 c-70 -71 -63 -206 14 -253 35 -21 127 -26 171 -9 35 13 30
46 -5 42 -80 -8 -139 -6 -154 7 -24 20 -19 31 15 31 23 0 42 10 70 39 34 34
39 45 39 85 0 60 -24 86 -81 86 -31 0 -47 -6 -69 -28z m103 -33 c18 -28 -1
-69 -39 -85 -19 -8 -39 -12 -44 -9 -20 12 -10 66 15 91 27 27 52 28 68 3z"/>
<path d="M5465 898 c-76 -66 -101 -183 -50 -233 33 -34 93 -34 152 1 25 14 46
24 48 22 1 -1 10 -18 19 -35 27 -54 52 -34 36 29 -4 18 -11 62 -15 98 -11 111
-42 150 -120 150 -24 0 -45 -9 -70 -32z m109 -24 c35 -34 12 -150 -35 -174
-28 -16 -75 -16 -94 0 -35 29 1 136 57 170 40 24 52 25 72 4z"/>
<path d="M8699 907 c-38 -25 -89 -115 -89 -157 0 -48 20 -88 51 -100 39 -16
100 -7 138 20 35 25 44 22 61 -20 13 -31 24 -37 35 -20 8 12 -22 226 -35 250
-28 53 -104 65 -161 27z m111 -52 c15 -46 4 -107 -24 -134 -29 -27 -75 -41
-104 -30 -43 16 -25 116 30 165 49 45 83 44 98 -1z"/>
<path d="M10752 905 c-53 -44 -66 -160 -25 -222 25 -37 65 -53 135 -53 69 1
105 18 94 45 -5 14 -13 15 -49 9 -23 -5 -59 -8 -80 -7 -60 2 -96 43 -37 43 38
0 97 51 108 94 10 37 -1 86 -25 104 -29 21 -88 15 -121 -13z m89 -25 c21 -12
25 -41 9 -70 -10 -20 -57 -40 -77 -33 -22 8 -15 62 12 88 27 28 29 29 56 15z"/>
<path d="M6196 890 c-58 -51 -68 -118 -30 -192 36 -70 94 -86 155 -45 33 22
59 70 46 83 -4 4 -25 -6 -47 -21 -44 -31 -96 -37 -111 -14 -5 8 -9 40 -9 72 0
49 4 62 25 83 21 21 31 24 60 18 28 -5 35 -3 35 10 0 8 -9 20 -19 26 -34 18
-69 11 -105 -20z"/>
<path d="M11048 897 c-31 -26 -58 -76 -58 -108 0 -40 24 -101 51 -130 46 -49
131 -32 165 32 22 43 6 54 -36 25 -44 -29 -78 -38 -101 -25 -41 21 -30 145 15
174 15 10 34 13 54 9 36 -7 41 4 14 29 -26 24 -72 21 -104 -6z"/>
<path d="M1193 879 c-60 -30 -93 -72 -93 -118 0 -52 27 -74 85 -73 27 0 60 9
80 21 31 18 36 18 50 5 19 -19 42 -101 50 -181 12 -118 -39 -183 -145 -183
-27 0 -50 -4 -50 -9 0 -26 110 -29 160 -3 19 9 45 33 58 52 22 32 24 42 19
120 -5 80 -58 292 -90 359 -16 35 -67 39 -124 10z m82 -49 c8 -24 -18 -75 -50
-96 -47 -31 -94 -3 -82 48 14 53 118 91 132 48z"/>
<path d="M1830 885 c-11 -14 -14 -40 -13 -102 3 -97 22 -153 52 -153 18 0 21
6 21 43 -1 23 -11 84 -23 136 -21 85 -24 92 -37 76z"/>
<path d="M2003 875 c-83 -42 -116 -116 -73 -163 31 -33 104 -33 156 -1 26 16
33 17 43 6 27 -33 43 -98 49 -189 l5 -97 -40 -41 c-39 -38 -44 -40 -102 -40
-62 0 -82 -14 -35 -26 43 -11 132 3 163 25 42 30 65 97 58 169 -7 66 -46 218
-79 312 -22 62 -25 65 -58 68 -22 2 -54 -7 -87 -23z m87 -56 c0 -36 -53 -99
-84 -99 -13 0 -30 8 -40 19 -29 32 6 87 69 108 41 14 55 6 55 -28z"/>
<path d="M2850 885 c-16 -20 -8 -181 12 -222 17 -35 52 -38 56 -4 4 25 -37
221 -48 234 -4 4 -13 1 -20 -8z"/>
<path d="M3335 881 c-85 -38 -124 -132 -75 -176 27 -24 100 -23 144 3 18 11
38 17 44 13 20 -12 40 -75 52 -161 10 -72 9 -89 -5 -126 -21 -57 -65 -84 -134
-84 -54 0 -69 -15 -25 -26 41 -11 124 2 152 23 74 54 79 161 17 373 -49 168
-53 174 -95 178 -19 1 -53 -6 -75 -17z m78 -56 c6 -32 -36 -93 -70 -101 -48
-12 -78 29 -54 74 12 23 88 63 106 56 7 -3 15 -16 18 -29z"/>
<path d="M5805 881 c-42 -19 -105 -82 -105 -105 0 -7 5 -27 11 -44 18 -53 107
-62 174 -18 23 15 25 15 41 -10 40 -61 59 -241 30 -292 -21 -40 -66 -62 -123
-62 -28 0 -54 -4 -58 -9 -8 -14 59 -24 113 -17 117 16 154 105 116 279 -17 79
-69 249 -85 278 -13 24 -61 24 -114 0z m75 -66 c0 -44 -51 -97 -88 -93 -63 8
-53 80 16 115 54 27 72 21 72 -22z"/>
<path d="M6056 877 c-16 -23 -17 -39 -11 -105 9 -96 27 -142 54 -142 18 0 21
6 21 43 -1 23 -11 85 -24 137 l-22 95 -18 -28z"/>
<path d="M1013 874 c-12 -31 4 -193 21 -219 20 -30 49 -30 55 0 6 34 -42 235
-56 235 -8 0 -16 -7 -20 -16z"/>
<path d="M6750 874 c-100 -43 -141 -146 -84 -213 20 -24 34 -31 61 -31 103 0
184 102 153 194 -20 63 -63 79 -130 50z m90 -59 c25 -65 -62 -159 -125 -135
-19 7 -25 17 -25 41 0 25 10 42 45 76 53 51 90 57 105 18z"/>
<path d="M9942 879 c-46 -14 -108 -78 -114 -120 -16 -110 68 -163 167 -105 76
45 98 154 44 212 -24 25 -44 28 -97 13z m82 -70 c13 -38 -20 -97 -67 -122 -35
-18 -39 -18 -62 -3 -39 26 -32 57 25 110 57 54 89 58 104 15z"/>
<path d="M11617 883 c-12 -11 -7 -166 6 -202 15 -41 41 -61 58 -44 10 10 8 32
-6 100 -10 48 -20 103 -23 121 -4 30 -20 41 -35 25z"/>
<path d="M11828 880 c-74 -22 -118 -80 -118 -155 0 -114 120 -131 210 -29 30
34 32 42 28 91 -7 85 -46 115 -120 93z m70 -52 c33 -33 -3 -114 -62 -142 -34
-16 -39 -16 -62 -2 -36 24 -30 53 25 107 48 49 77 59 99 37z"/>
<path d="M8134 865 c-17 -44 49 -218 87 -230 28 -9 32 -3 46 77 6 39 16 75 22
81 15 15 38 -8 47 -46 15 -73 56 -113 71 -69 31 91 71 148 90 128 4 -3 14 -41
23 -84 14 -67 19 -77 40 -80 22 -4 23 -2 17 57 -6 71 -31 127 -69 154 -25 18
-29 19 -50 5 -13 -9 -32 -32 -43 -52 -11 -20 -22 -36 -26 -36 -4 0 -18 15 -32
34 -45 59 -127 48 -127 -16 0 -27 -16 -55 -26 -46 -4 4 -14 35 -24 70 -17 63
-35 83 -46 53z"/>
<path d="M3051 819 c-17 -17 -31 -37 -31 -45 0 -26 -20 -14 -27 16 -7 35 -20
47 -35 32 -16 -16 18 -135 48 -167 29 -32 41 -26 49 23 11 62 25 99 45 117 19
17 21 17 39 1 18 -16 37 -73 43 -126 2 -14 10 -26 21 -28 14 -3 17 4 17 40 0
143 -90 216 -169 137z"/>
<path d="M9048 823 c-14 -16 -30 -37 -36 -48 -10 -18 -12 -17 -27 18 -29 70
-55 38 -32 -41 20 -65 43 -108 61 -115 19 -8 20 -6 40 73 20 77 46 111 71 90
25 -21 37 -49 44 -104 5 -42 9 -51 26 -51 17 0 20 6 17 45 -7 105 -42 160
-102 160 -27 0 -43 -7 -62 -27z"/>
<path d="M10212 834 c-12 -8 -29 -29 -38 -47 -16 -29 -17 -30 -30 -12 -8 10
-14 27 -14 37 0 21 -25 24 -33 4 -6 -16 14 -88 39 -141 12 -27 22 -35 37 -33
16 2 23 15 32 59 28 143 88 144 116 2 9 -51 15 -63 30 -63 22 0 24 24 8 100
-20 95 -86 137 -147 94z"/>
<path d="M10511 825 c-16 -14 -33 -36 -37 -47 -6 -21 -7 -21 -20 -3 -8 10 -14
27 -14 37 0 19 -25 25 -35 8 -10 -17 32 -143 55 -168 29 -31 46 -16 54 46 7
54 39 112 61 112 22 0 42 -38 54 -104 6 -33 11 -61 11 -63 0 -2 10 -3 21 -3
20 0 21 3 14 57 -9 70 -20 101 -47 131 -29 30 -78 29 -117 -3z"/>
<path d="M12092 834 c-12 -8 -29 -29 -37 -45 -18 -34 -31 -31 -40 11 -9 39
-35 40 -35 1 0 -71 58 -182 85 -163 6 4 16 34 23 66 28 141 88 140 114 -3 10
-50 15 -61 31 -61 18 0 19 5 14 60 -7 63 -29 116 -56 137 -22 17 -72 16 -99
-3z"/>
</g>
</svg>
