<?xml version="1.0" standalone="no"?>
<!DOCTYPE svg PUBLIC "-//W3C//DTD SVG 20010904//EN"
 "http://www.w3.org/TR/2001/REC-SVG-20010904/DTD/svg10.dtd">
<svg version="1.0" xmlns="http://www.w3.org/2000/svg"
 width="1284.000000pt" height="180.000000pt" viewBox="0 0 1284.000000 180.000000"
 preserveAspectRatio="xMidYMid meet">

<g transform="translate(0.000000,180.000000) scale(0.100000,-0.100000)"
fill="#000000" stroke="none">
<path d="M8000 1308 c-49 -25 -78 -66 -96 -137 -10 -42 -14 -46 -45 -49 -19
-2 -38 -8 -44 -13 -14 -14 22 -39 56 -39 32 0 43 -15 93 -130 38 -85 49 -100
75 -100 20 0 6 43 -40 120 -51 87 -51 100 4 101 66 2 101 13 105 31 3 15 -8
18 -80 20 -82 3 -83 3 -86 30 -5 41 26 97 69 125 37 25 59 26 102 8 26 -11 22
20 -5 39 -31 22 -56 20 -108 -6z"/>
<path d="M2210 1251 c-5 -11 -10 -38 -10 -60 l0 -40 -47 -3 c-27 -2 -47 -7
-46 -13 1 -5 25 -17 53 -25 28 -8 55 -22 60 -30 4 -8 13 -46 18 -83 11 -71 24
-97 48 -97 20 0 17 36 -6 103 -29 83 -29 84 45 92 56 6 65 9 65 27 0 18 -4 19
-40 13 -21 -4 -49 -4 -60 0 -25 8 -50 61 -50 105 0 34 -14 39 -30 11z"/>
<path d="M4622 1258 c-7 -7 -12 -34 -12 -60 l0 -48 -50 0 c-71 0 -68 -25 5
-40 64 -13 70 -22 80 -105 8 -65 27 -105 50 -105 21 0 19 35 -5 103 -11 31
-20 63 -20 70 0 9 21 17 62 23 49 7 64 13 66 28 3 16 -1 17 -37 11 -22 -4 -50
-4 -61 0 -25 8 -50 61 -50 105 0 32 -9 37 -28 18z"/>
<path d="M5136 1255 c-3 -9 -6 -37 -6 -61 l0 -44 -50 0 c-72 0 -68 -25 6 -40
62 -13 67 -20 78 -110 8 -60 28 -100 51 -100 20 0 19 30 -5 92 -33 87 -30 94
43 104 44 7 62 13 62 24 0 12 -11 14 -50 12 -63 -4 -83 15 -93 84 -7 48 -25
68 -36 39z"/>
<path d="M11787 1263 c-4 -3 -7 -30 -7 -60 l0 -53 -50 0 c-68 0 -68 -24 0 -40
27 -6 54 -18 60 -26 7 -7 15 -42 20 -77 9 -71 24 -107 45 -107 25 0 26 18 5
79 -33 100 -31 107 43 117 44 7 62 13 62 24 0 11 -10 14 -40 12 -78 -5 -95 10
-110 101 -6 36 -14 45 -28 30z"/>
<path d="M525 1238 c-2 -7 -6 -38 -7 -68 l-3 -55 -84 -3 c-97 -3 -101 -1 -101
71 0 34 -5 49 -15 54 -9 3 -18 3 -22 0 -10 -11 15 -263 31 -300 9 -22 22 -37
32 -37 14 0 15 8 9 67 -4 36 -9 72 -12 80 -4 10 13 13 79 13 l85 0 11 -66 c11
-65 25 -94 45 -94 7 0 7 37 2 113 -5 61 -9 135 -10 162 -3 74 -4 75 -20 75 -9
0 -18 -6 -20 -12z"/>
<path d="M3094 1238 c-4 -6 -8 -36 -8 -67 l-1 -56 -90 0 -90 0 -5 60 c-4 47
-9 61 -22 63 -16 3 -18 -5 -18 -55 0 -155 30 -283 67 -283 13 0 15 8 9 51 -4
29 -10 65 -13 80 l-5 29 84 0 85 0 7 -55 c7 -65 24 -105 44 -105 12 0 14 14 8
83 -3 45 -9 124 -12 175 -5 66 -10 92 -20 92 -7 0 -16 -5 -20 -12z"/>
<path d="M3194 1239 c-8 -14 18 -31 30 -19 9 9 0 30 -14 30 -5 0 -12 -5 -16
-11z"/>
<path d="M3586 1241 c-4 -6 -12 -66 -17 -133 -12 -143 -1 -201 39 -206 20 -3
22 1 22 46 0 35 5 54 19 66 43 39 91 -1 91 -77 0 -63 24 -40 28 26 3 51 0 60
-24 82 -34 31 -81 33 -118 4 l-28 -22 8 49 c16 100 3 203 -20 165z"/>
<path d="M3910 1236 c0 -14 24 -29 33 -19 3 3 3 11 0 19 -7 18 -33 18 -33 0z"/>
<path d="M4310 1229 c-7 -12 -12 -78 -13 -160 -2 -117 1 -141 15 -155 22 -22
52 -11 43 16 -11 34 13 89 42 96 14 4 33 3 42 -3 20 -12 33 -61 25 -95 -3 -16
-2 -28 3 -28 20 0 33 26 33 66 0 87 -88 137 -146 83 l-22 -21 5 105 c6 106 -4
140 -27 96z"/>
<path d="M7034 1239 c-8 -14 18 -31 30 -19 9 9 0 30 -14 30 -5 0 -12 -5 -16
-11z"/>
<path d="M8595 1228 c-2 -13 -6 -43 -7 -68 l-3 -45 -84 -3 c-98 -3 -101 -1
-101 76 0 46 -3 53 -17 50 -16 -3 -18 -15 -15 -98 4 -125 18 -200 42 -224 29
-29 35 -14 24 65 -5 38 -8 72 -5 74 2 3 39 5 82 5 l78 0 7 -47 c8 -57 29 -113
42 -113 18 0 19 35 7 155 -7 66 -12 136 -11 155 1 42 -30 57 -39 18z"/>
<path d="M12004 1239 c-7 -12 15 -31 28 -23 9 6 -1 34 -12 34 -5 0 -12 -5 -16
-11z"/>
<path d="M884 1226 c-9 -24 21 -287 36 -316 6 -11 16 -18 22 -14 19 12 -14
299 -37 331 -13 17 -14 17 -21 -1z"/>
<path d="M3810 1225 c-11 -13 -11 -31 -2 -93 6 -42 14 -104 18 -137 6 -61 28
-110 44 -100 14 8 -19 298 -38 331 -8 13 -10 13 -22 -1z"/>
<path d="M5354 1229 c-4 -7 -9 -73 -12 -148 -5 -147 2 -181 38 -181 17 0 20 7
20 43 0 51 22 87 55 87 33 0 55 -36 55 -87 0 -48 15 -57 30 -17 14 36 2 93
-26 121 -30 30 -82 30 -119 1 -26 -20 -27 -20 -22 -2 28 94 13 234 -19 183z"/>
<path d="M6277 1213 c-8 -16 -17 -44 -21 -64 -3 -19 -12 -44 -20 -54 -12 -17
-17 -14 -61 47 -26 36 -58 72 -72 79 -22 12 -27 11 -40 -6 -24 -32 -5 -321 21
-312 12 4 13 52 1 144 -8 61 -2 113 13 113 4 0 16 -14 26 -31 33 -56 77 -99
102 -99 26 0 39 19 60 90 22 73 37 80 63 27 11 -24 26 -70 32 -103 12 -62 30
-91 48 -79 24 14 -25 197 -65 244 -33 40 -68 41 -87 4z"/>
<path d="M10182 1205 c-42 -35 -76 -118 -69 -168 11 -78 69 -129 154 -134 61
-4 98 9 117 39 17 28 -2 33 -53 15 -71 -25 -107 -22 -141 11 -44 45 -48 91
-14 160 34 66 70 88 102 59 35 -32 46 -11 12 23 -27 27 -72 25 -108 -5z"/>
<path d="M1723 1191 c-48 -35 -70 -81 -57 -119 12 -35 48 -52 112 -52 66 0 69
-18 11 -71 -33 -30 -38 -40 -26 -45 35 -13 107 66 107 119 0 31 -15 37 -90 37
-68 0 -86 14 -70 54 6 18 25 33 55 46 47 20 53 28 33 48 -18 18 -31 15 -75
-17z"/>
<path d="M1582 1111 c1 -103 -22 -156 -67 -156 -43 0 -70 57 -67 143 2 63 -5
74 -28 47 -26 -31 5 -181 47 -227 23 -26 75 -23 101 5 62 65 83 267 28 267
-13 0 -15 -15 -14 -79z"/>
<path d="M8849 1183 c-1 -5 -2 -45 -3 -90 -1 -92 -23 -138 -66 -138 -41 0 -65
47 -65 128 0 57 -3 72 -15 72 -11 0 -16 -14 -18 -57 -7 -136 61 -229 139 -188
46 25 85 175 65 254 -6 23 -34 37 -37 19z"/>
<path d="M662 1154 c-47 -33 -67 -136 -37 -194 9 -16 29 -36 45 -45 51 -27
178 -13 167 18 -3 8 -24 11 -70 9 -63 -4 -107 8 -107 28 0 6 9 10 21 10 52 0
109 61 109 117 0 60 -76 94 -128 57z m76 -36 c29 -29 -6 -88 -53 -88 -21 0
-25 5 -25 30 0 31 30 70 53 70 7 0 18 -5 25 -12z"/>
<path d="M5621 1145 c-42 -36 -60 -115 -38 -168 21 -48 68 -77 130 -77 54 0
87 13 87 36 0 12 -11 13 -63 8 -41 -4 -71 -2 -85 5 -30 16 -28 31 4 31 32 0
94 59 95 92 2 46 -3 63 -23 81 -29 24 -71 21 -107 -8z m87 -48 c4 -37 -24 -69
-57 -65 -22 3 -26 8 -24 32 5 63 75 91 81 33z"/>
<path d="M6540 1148 c-42 -29 -80 -100 -80 -150 0 -79 82 -114 158 -68 42 26
44 26 65 -12 30 -53 39 -22 23 85 -16 105 -25 128 -58 151 -31 22 -69 20 -108
-6z m94 -34 c3 -9 6 -37 6 -64 0 -42 -4 -52 -31 -75 -35 -29 -85 -31 -102 -4
-16 26 1 86 37 124 36 38 79 47 90 19z"/>
<path d="M9419 1147 c-74 -50 -105 -169 -56 -215 30 -28 91 -29 132 -2 39 26
42 25 60 -10 9 -16 19 -30 24 -30 22 0 20 27 -10 187 -17 88 -80 117 -150 70z
m91 -36 c5 -11 10 -38 10 -61 0 -59 -44 -103 -97 -98 -35 3 -38 6 -41 37 -4
44 14 85 50 116 35 30 64 32 78 6z"/>
<path d="M11261 1154 c-48 -34 -66 -135 -36 -194 9 -16 29 -36 45 -45 51 -27
178 -13 167 18 -3 8 -24 11 -70 9 -63 -4 -107 8 -107 28 0 6 12 10 26 10 17 0
40 14 65 39 45 45 51 83 18 125 -24 31 -72 35 -108 10z m77 -36 c29 -29 -6
-88 -53 -88 -21 0 -25 5 -25 30 0 31 30 70 53 70 7 0 18 -5 25 -12z"/>
<path d="M1002 1137 c-28 -30 -28 -61 3 -175 35 -129 63 -192 86 -192 26 0 24
26 -6 79 -14 23 -25 50 -25 58 0 8 22 39 49 69 72 78 79 139 21 169 -45 23
-102 19 -128 -8z m118 -32 c15 -18 5 -53 -28 -87 -29 -31 -57 -36 -66 -12 -10
27 -7 89 6 102 17 17 73 15 88 -3z"/>
<path d="M7185 1142 c-58 -48 -69 -105 -36 -179 30 -65 78 -80 138 -44 31 19
51 56 38 69 -3 4 -24 -3 -45 -16 -71 -41 -100 -26 -100 53 0 31 6 60 16 74 14
20 22 22 55 17 43 -7 49 2 21 27 -24 22 -61 21 -87 -1z"/>
<path d="M11516 1145 c-57 -43 -71 -116 -36 -185 32 -63 78 -76 137 -41 30 19
51 56 39 69 -4 3 -26 -4 -49 -17 -23 -13 -53 -21 -67 -20 -23 4 -25 9 -28 62
-4 83 15 112 69 103 43 -7 49 2 21 27 -23 21 -60 21 -86 2z"/>
<path d="M3217 1134 c-4 -4 -7 -43 -7 -86 0 -91 20 -152 47 -146 22 5 21 31
-3 143 -18 82 -25 100 -37 89z"/>
<path d="M3375 1125 c-56 -30 -85 -66 -85 -105 0 -68 65 -91 143 -51 l38 19
19 -31 c34 -56 46 -203 20 -251 -19 -37 -59 -56 -115 -56 -51 0 -60 -15 -15
-25 88 -19 173 34 185 116 8 54 -14 167 -58 299 -32 95 -32 95 -67 98 -19 1
-48 -5 -65 -13z m69 -41 c10 -25 8 -32 -25 -69 -36 -40 -72 -46 -90 -14 -9 18
-7 26 8 48 35 46 95 66 107 35z"/>
<path d="M3930 1125 c-16 -19 -8 -156 11 -197 18 -41 49 -37 49 5 -1 32 -34
195 -43 203 -2 2 -10 -2 -17 -11z"/>
<path d="M4081 1119 c-46 -24 -81 -69 -81 -106 0 -59 81 -82 152 -44 19 11 39
17 43 13 21 -21 38 -88 42 -169 l6 -92 -36 -36 c-32 -32 -40 -35 -93 -35 -46
0 -55 -2 -45 -12 7 -8 36 -13 69 -13 100 1 142 48 142 157 0 61 -27 180 -68
298 -17 51 -21 55 -53 58 -20 1 -52 -7 -78 -19z m77 -52 c4 -32 -44 -87 -76
-87 -53 0 -52 68 1 100 43 27 71 23 75 -13z"/>
<path d="M6828 1120 c-73 -39 -100 -108 -58 -150 26 -26 79 -26 131 0 l40 21
20 -46 c26 -59 37 -183 19 -225 -20 -49 -55 -70 -116 -70 -66 0 -71 -16 -9
-26 62 -9 130 17 156 60 24 39 25 124 3 210 -25 99 -64 219 -76 233 -15 19
-67 15 -110 -7z m80 -47 c4 -27 -31 -79 -58 -88 -67 -21 -83 51 -20 93 42 28
74 26 78 -5z"/>
<path d="M7063 1133 c-9 -3 -13 -29 -12 -81 0 -95 16 -147 44 -147 17 0 20 6
17 45 -4 74 -35 188 -49 183z"/>
<path d="M12020 1125 c-9 -11 -11 -37 -7 -97 7 -84 25 -128 54 -128 13 0 15 9
9 58 -7 67 -29 168 -37 177 -3 3 -12 -2 -19 -10z"/>
<path d="M2493 1110 c-79 -35 -110 -134 -58 -185 32 -33 79 -33 128 0 66 45
84 112 47 173 -23 38 -53 41 -117 12z m91 -36 c14 -36 5 -67 -28 -100 -37 -37
-75 -44 -96 -19 -19 23 -4 59 40 99 43 38 74 46 84 20z"/>
<path d="M7665 1113 c-47 -24 -74 -54 -84 -90 -11 -40 1 -90 26 -109 72 -55
215 60 184 148 -24 67 -64 84 -126 51z m85 -48 c19 -50 -37 -125 -92 -125 -63
0 -51 77 19 125 47 31 61 31 73 0z"/>
<path d="M10503 1109 c-58 -28 -87 -77 -80 -132 13 -98 122 -104 193 -12 22
30 26 42 21 81 -9 82 -53 103 -134 63z m95 -62 c3 -32 -2 -43 -31 -72 -36 -36
-73 -45 -95 -23 -22 22 -12 51 34 95 58 56 88 56 92 0z"/>
<path d="M12195 1114 c-45 -23 -83 -63 -90 -95 -8 -37 11 -96 35 -109 71 -38
180 37 180 124 0 82 -55 117 -125 80z m83 -70 c3 -35 -2 -45 -29 -72 -42 -41
-84 -43 -101 -7 -10 21 -8 30 9 53 26 35 83 74 102 70 11 -2 17 -17 19 -44z"/>
<path d="M8913 1068 c9 -70 55 -163 82 -163 17 0 22 11 33 65 20 101 41 105
71 13 22 -65 47 -65 71 0 39 102 63 103 85 2 14 -63 20 -75 37 -75 19 0 20 4
14 57 -8 69 -41 131 -75 140 -24 6 -53 -17 -80 -64 -9 -16 -13 -15 -44 15 -26
25 -42 33 -62 30 -30 -3 -40 -16 -50 -60 -9 -44 -24 -33 -42 32 -10 39 -22 60
-31 60 -12 0 -14 -10 -9 -52z"/>
<path d="M9727 1080 c-14 -11 -29 -29 -32 -40 -9 -29 -21 -25 -34 11 -12 34
-31 31 -31 -5 0 -61 55 -157 80 -141 4 3 10 25 13 50 4 25 14 59 22 75 29 56
62 31 80 -58 8 -39 17 -58 28 -60 36 -7 13 123 -28 164 -29 29 -64 31 -98 4z"/>
<path d="M10748 1059 l-39 -40 -10 30 c-11 32 -23 39 -35 20 -9 -16 25 -125
48 -149 26 -27 34 -20 48 42 27 130 85 127 105 -5 6 -37 11 -47 26 -47 18 0
19 5 13 53 -7 58 -17 82 -47 115 -31 34 -64 28 -109 -19z"/>
<path d="M11018 1059 l-39 -41 -12 31 c-12 34 -24 39 -33 17 -9 -23 24 -124
47 -147 25 -25 33 -18 48 46 31 127 86 124 105 -7 10 -65 36 -67 36 -4 0 53
-14 93 -42 124 -32 34 -65 28 -110 -19z"/>
<path d="M12441 1074 c-17 -14 -31 -32 -31 -40 0 -25 -21 -15 -31 16 -11 31
-23 38 -34 20 -10 -16 22 -113 47 -145 20 -26 22 -26 35 -9 7 10 13 28 13 41
0 34 26 92 45 100 26 9 45 -19 58 -85 9 -50 15 -62 30 -62 17 0 18 5 12 53
-17 127 -73 171 -144 111z"/>
</g>
</svg>
